<?xml version="1.0" encoding="UTF-8" standalone="no"?>
<!-- Created with Inkscape (http://www.inkscape.org/) -->

<svg
   xmlns:dc="http://purl.org/dc/elements/1.1/"
   xmlns:cc="http://creativecommons.org/ns#"
   xmlns:rdf="http://www.w3.org/1999/02/22-rdf-syntax-ns#"
   xmlns:svg="http://www.w3.org/2000/svg"
   xmlns="http://www.w3.org/2000/svg"
   xmlns:sodipodi="http://sodipodi.sourceforge.net/DTD/sodipodi-0.dtd"
   xmlns:inkscape="http://www.inkscape.org/namespaces/inkscape"
   width="388.17255mm"
   height="202.84541mm"
   viewBox="0 0 388.17254 202.84541"
   version="1.1"
   id="svg8"
   inkscape:version="0.92.2 (5c3e80d, 2017-08-06)"
   sodipodi:docname="background.svg">
  <defs
     id="defs2" />
  <sodipodi:namedview
     id="base"
     pagecolor="#ffffff"
     bordercolor="#666666"
     borderopacity="1.0"
     inkscape:pageopacity="0.0"
     inkscape:pageshadow="2"
     inkscape:zoom="0.35"
     inkscape:cx="814.8798"
     inkscape:cy="370.90278"
     inkscape:document-units="mm"
     inkscape:current-layer="layer1"
     showgrid="false"
     inkscape:window-width="1366"
     inkscape:window-height="706"
     inkscape:window-x="0"
     inkscape:window-y="34"
     inkscape:window-maximized="1" />
  <metadata
     id="metadata5">
    <rdf:RDF>
      <cc:Work
         rdf:about="">
        <dc:format>image/svg+xml</dc:format>
        <dc:type
           rdf:resource="http://purl.org/dc/dcmitype/StillImage" />
        <dc:title></dc:title>
      </cc:Work>
    </rdf:RDF>
  </metadata>
  <g
     inkscape:label="Layer 1"
     inkscape:groupmode="layer"
     id="layer1"
     transform="translate(58.344553,-67.982508)">
    <path
       style="opacity:1;fill:#2d8b83;fill-opacity:1;stroke:none;stroke-width:3.14309287;stroke-linecap:round;stroke-linejoin:round;stroke-miterlimit:4;stroke-dasharray:none;stroke-dashoffset:0;stroke-opacity:1;paint-order:stroke markers fill"
       d="M -60 -86.197266 L -60 813.80273 L 1540 813.80273 L 1540 -86.197266 L -60 -86.197266 z M 709.35742 455.58984 A 5.3549261 5.3549261 0 0 1 714.71289 460.94531 A 5.3549261 5.3549261 0 0 1 709.35742 466.30078 A 5.3549261 5.3549261 0 0 1 704.00391 460.94531 A 5.3549261 5.3549261 0 0 1 709.35742 455.58984 z M 729.78516 455.58984 A 5.354926 5.354926 0 0 1 735.14062 460.94531 A 5.354926 5.354926 0 0 1 729.78516 466.30078 A 5.354926 5.354926 0 0 1 724.43164 460.94531 A 5.354926 5.354926 0 0 1 729.78516 455.58984 z M 750.21484 455.58984 A 5.3549259 5.3549259 0 0 1 755.56836 460.94531 A 5.3549259 5.3549259 0 0 1 750.21484 466.30078 A 5.3549259 5.3549259 0 0 1 744.85938 460.94531 A 5.3549259 5.3549259 0 0 1 750.21484 455.58984 z M 770.64258 455.58984 A 5.3549258 5.3549258 0 0 1 775.99609 460.94531 A 5.3549258 5.3549258 0 0 1 770.64258 466.30078 A 5.3549258 5.3549258 0 0 1 765.28711 460.94531 A 5.3549258 5.3549258 0 0 1 770.64258 455.58984 z "
       transform="matrix(0.26458333,0,0,0.26458333,-58.344553,67.982508)"
       id="rect4570-3" />
  </g>
</svg>
