<?xml version="1.0" encoding="UTF-8" standalone="no"?>
<!-- Created with Inkscape (http://www.inkscape.org/) -->

<svg
   xmlns:dc="http://purl.org/dc/elements/1.1/"
   xmlns:cc="http://creativecommons.org/ns#"
   xmlns:rdf="http://www.w3.org/1999/02/22-rdf-syntax-ns#"
   xmlns:svg="http://www.w3.org/2000/svg"
   xmlns="http://www.w3.org/2000/svg"
   xmlns:sodipodi="http://sodipodi.sourceforge.net/DTD/sodipodi-0.dtd"
   xmlns:inkscape="http://www.inkscape.org/namespaces/inkscape"
   width="29.664505mm"
   height="18.470631mm"
   viewBox="0 0 29.664505 18.470631"
   version="1.1"
   id="svg8"
   inkscape:version="0.92.2 (5c3e80d, 2017-08-06)"
   sodipodi:docname="body.svg">
  <defs
     id="defs2" />
  <sodipodi:namedview
     id="base"
     pagecolor="#ffffff"
     bordercolor="#666666"
     borderopacity="1.0"
     inkscape:pageopacity="0.0"
     inkscape:pageshadow="2"
     inkscape:zoom="1.979899"
     inkscape:cx="53.287174"
     inkscape:cy="23.611688"
     inkscape:document-units="mm"
     inkscape:current-layer="layer1"
     showgrid="false"
     inkscape:window-width="1366"
     inkscape:window-height="706"
     inkscape:window-x="0"
     inkscape:window-y="34"
     inkscape:window-maximized="1" />
  <metadata
     id="metadata5">
    <rdf:RDF>
      <cc:Work
         rdf:about="">
        <dc:format>image/svg+xml</dc:format>
        <dc:type
           rdf:resource="http://purl.org/dc/dcmitype/StillImage" />
        <dc:title></dc:title>
      </cc:Work>
    </rdf:RDF>
  </metadata>
  <g
     inkscape:label="Layer 1"
     inkscape:groupmode="layer"
     id="layer1"
     transform="translate(-258.82251,-180.41945)">
    <g
       transform="translate(174.72453,97.981142)"
       id="g248">
      <g
         id="g240">
        <path
           inkscape:connector-curvature="0"
           id="path4786"
           d="m 108.16737,86.928429 c 0,0 3.1845,-1.93553 4.77493,-0.13528 1.59044,1.80026 1.2856,9.38904 -4.712,9.73114 -5.99761,0.34208 0.11646,-1.72994 0.11646,-1.72994 0,0 1.52185,0.85446 2.99959,-1.38206 1.47774,-2.23653 1.75826,-7.91078 -2.78751,-5.46866 -4.54577,2.44211 -0.39147,-1.0152 -0.39147,-1.0152 z"
           style="fill:#ffffff;stroke:none;stroke-width:0.20424259px;stroke-linecap:butt;stroke-linejoin:miter;stroke-opacity:1" />
        <g
           id="g227"
           transform="translate(-73.766404,-93.010031)">
          <path
             inkscape:connector-curvature="0"
             id="path4784"
             d="m 158.66509,177.14517 c 0,0 -4.42188,12.11594 7.51719,15.83032 11.93907,3.71437 19.5447,-4.15657 18.04126,-12.82344 -1.50344,-8.66689 -10.78938,-2.47627 -18.39501,-3.62595 -7.60563,-1.14969 -6.72126,-0.0884 -7.16344,0.61907 z"
             style="fill:#ffffff;stroke:none;stroke-width:0.17509744px;stroke-linecap:butt;stroke-linejoin:miter;stroke-opacity:1" />
          <path
             id="path4877"
             d="m 184.22651,184.42942 a 19.942674,16.095637 0 0 1 -17.29259,8.10407 19.942674,16.095637 0 0 1 -2.28173,-0.11628 c 0.47774,0.20203 0.98643,0.389 1.53005,0.55812 9.91941,3.08604 16.84641,-1.8254 18.04427,-8.54591 z"
             style="fill:#f0f0f0;fill-opacity:1;stroke:none;stroke-width:0.17509744px;stroke-linecap:butt;stroke-linejoin:miter;stroke-opacity:1"
             inkscape:connector-curvature="0" />
        </g>
      </g>
      <path
         inkscape:connector-curvature="0"
         id="path4866"
         d="m 95.10269,97.042668 c -0.11075,-0.362368 -0.342222,-0.49322 -1.248126,-1.0267 -0.905905,-0.533466 -0.946167,-2.194296 -0.946167,-2.194296 0,0 0.563674,0.59387 1.147478,0.775054 0.583805,0.181184 1.016627,0.69452 1.056887,1.006556 l -0.0096,-1.24813 c 0,0 0.06032,-0.452946 0.463018,-0.644202 0.402628,-0.191242 0.764983,-0.452947 0.825373,-0.664332 0,0 0.171112,0.835457 -0.211372,1.238072 -0.382498,0.402628 -0.905907,0.503278 -0.956225,0.734794 l -0.0096,2.546593 -0.100719,-0.0096 z"
         style="fill:#4fc780;fill-opacity:1;fill-rule:evenodd;stroke:none;stroke-width:0.0284698px;stroke-linecap:butt;stroke-linejoin:miter;stroke-opacity:1" />
    </g>
  </g>
</svg>
