<?xml version="1.0" encoding="UTF-8" standalone="no"?>
<!-- Created with Inkscape (http://www.inkscape.org/) -->

<svg
   xmlns:dc="http://purl.org/dc/elements/1.1/"
   xmlns:cc="http://creativecommons.org/ns#"
   xmlns:rdf="http://www.w3.org/1999/02/22-rdf-syntax-ns#"
   xmlns:svg="http://www.w3.org/2000/svg"
   xmlns="http://www.w3.org/2000/svg"
   xmlns:sodipodi="http://sodipodi.sourceforge.net/DTD/sodipodi-0.dtd"
   xmlns:inkscape="http://www.inkscape.org/namespaces/inkscape"
   width="19.269136mm"
   height="16.951883mm"
   viewBox="0 0 19.269136 16.951883"
   version="1.1"
   id="svg8"
   inkscape:version="0.92.2 (5c3e80d, 2017-08-06)"
   sodipodi:docname="leg.svg">
  <defs
     id="defs2">
    <filter
       inkscape:collect="always"
       style="color-interpolation-filters:sRGB"
       id="filter6019"
       x="-0.049980786"
       width="1.0999616"
       y="-0.52025455"
       height="2.040509">
      <feGaussianBlur
         inkscape:collect="always"
         stdDeviation="0.6373042"
         id="feGaussianBlur6021" />
    </filter>
  </defs>
  <sodipodi:namedview
     id="base"
     pagecolor="#ffffff"
     bordercolor="#666666"
     borderopacity="1.0"
     inkscape:pageopacity="0.0"
     inkscape:pageshadow="2"
     inkscape:zoom="0.35"
     inkscape:cx="-186.44303"
     inkscape:cy="500.60648"
     inkscape:document-units="mm"
     inkscape:current-layer="layer1"
     showgrid="false"
     inkscape:window-width="1366"
     inkscape:window-height="706"
     inkscape:window-x="0"
     inkscape:window-y="34"
     inkscape:window-maximized="1" />
  <metadata
     id="metadata5">
    <rdf:RDF>
      <cc:Work
         rdf:about="">
        <dc:format>image/svg+xml</dc:format>
        <dc:type
           rdf:resource="http://purl.org/dc/dcmitype/StillImage" />
        <dc:title></dc:title>
      </cc:Work>
    </rdf:RDF>
  </metadata>
  <g
     inkscape:label="Layer 1"
     inkscape:groupmode="layer"
     id="layer1"
     transform="translate(-155.16305,-264.33358)">
    <g
       id="g4864"
       transform="matrix(0.6617856,0,0,0.6617856,208.03879,15.980215)">
      <path
         inkscape:connector-curvature="0"
         id="ellipse4828"
         d="m 115.12066,136.52071 a 15.301181,1.4699824 0 0 1 -15.301179,1.46998 15.301181,1.4699824 0 0 1 -15.301181,-1.46998 15.301181,1.4699824 0 0 1 15.301181,-1.46999 15.301181,1.4699824 0 0 1 15.301179,1.46999 z"
         style="opacity:0.13999999;fill:#000000;fill-opacity:1;stroke:none;stroke-width:0.39687499;stroke-linecap:round;stroke-linejoin:round;stroke-miterlimit:4;stroke-dasharray:none;stroke-dashoffset:0;stroke-opacity:1;paint-order:stroke markers fill;filter:url(#filter6019)"
         transform="matrix(0.8649928,0,0,1.0492432,-151.68328,254.50241)" />
      <g
         transform="translate(-164.83611,255.93345)"
         id="g4834">
        <path
           style="fill:#1a1a1a;stroke:none;stroke-width:0.26458332px;stroke-linecap:butt;stroke-linejoin:miter;stroke-opacity:1"
           d="m 97.517856,121.52455 c 0,0 1.472094,20.09163 -0.16493,20.15844 -1.637028,0.0668 -4.142679,0.3675 -3.875411,-0.33408 0.267272,-0.70158 2.764671,0.11389 3.048154,-1.91774 0.283482,-2.03162 0.894072,-11.21188 0.09227,-17.22544 -0.801809,-6.01357 0.899922,-0.68118 0.899922,-0.68118 z"
           id="path4830"
           inkscape:connector-curvature="0" />
        <path
           inkscape:connector-curvature="0"
           id="path4832"
           d="m 101.47408,121.52455 c 0,0 -1.47209,20.09163 0.16493,20.15844 1.63703,0.0668 4.14268,0.3675 3.87542,-0.33408 -0.26728,-0.70158 -2.76467,0.11389 -3.04816,-1.91774 -0.28348,-2.03162 -0.89407,-11.21188 -0.0923,-17.22544 0.80181,-6.01357 -0.89992,-0.68118 -0.89992,-0.68118 z"
           style="fill:#1a1a1a;stroke:none;stroke-width:0.26458332px;stroke-linecap:butt;stroke-linejoin:miter;stroke-opacity:1" />
      </g>
    </g>
  </g>
</svg>
